<svg width="10" height="10" viewBox="0 0 10 10" fill="none" xmlns="http://www.w3.org/2000/svg">
<path fill-rule="evenodd" clip-rule="evenodd" d="M0.246139 9.75386C-0.0820464 9.42568 -0.0820464 8.89358 0.246139 8.5654L7.13079 1.68075L2.02884 1.68075C1.56471 1.68075 1.18846 1.3045 1.18846 0.840373C1.18846 0.376249 1.56471 0 2.02884 5.66704e-07L9.15963 0C9.62375 0 10 0.376249 10 0.840373V7.97116C10 8.43529 9.62375 8.81154 9.15963 8.81154C8.6955 8.81154 8.31925 8.43529 8.31925 7.97116V2.86921L1.4346 9.75386C1.10642 10.082 0.574325 10.082 0.246139 9.75386Z" fill="url(#paint0_linear_1_931)"/>
<defs>
<linearGradient id="paint0_linear_1_931" x1="-0.0392157" y1="-1.1481e-07" x2="11.6377" y2="2.57579" gradientUnits="userSpaceOnUse">
<stop stop-color="#5163FF"/>
<stop offset="1" stop-color="#FE71B9"/>
</linearGradient>
</defs>
</svg>
