<svg width="32" height="36" viewBox="0 0 32 36" fill="none" xmlns="http://www.w3.org/2000/svg">
<path d="M26.7188 18.4825V15.1172C26.7188 10.2078 23.4556 6.0468 18.9845 4.68773V3.16406C18.9845 1.4194 17.5651 0 15.8204 0C14.0757 0 12.6563 1.4194 12.6563 3.16406V4.68773C8.18516 6.0468 4.92196 10.2078 4.92196 15.1172V18.4825C4.92196 22.7949 3.27819 26.884 0.293496 29.9966C0.000996239 30.3016 -0.0811991 30.7517 0.0845977 31.1404C0.250395 31.529 0.632191 31.7812 1.05477 31.7812H10.6531C11.143 34.1854 13.2737 36 15.8204 36C18.3671 36 20.4977 34.1854 20.9877 31.7812H30.586C31.0086 31.7812 31.3903 31.529 31.5561 31.1404C31.7219 30.7517 31.6397 30.3016 31.3473 29.9966C28.3626 26.884 26.7188 22.7948 26.7188 18.4825ZM14.7657 3.16406C14.7657 2.58251 15.2388 2.10938 15.8204 2.10938C16.4019 2.10938 16.8751 2.58251 16.8751 3.16406V4.26994C16.528 4.23647 16.1762 4.21875 15.8204 4.21875C15.4646 4.21875 15.1128 4.23647 14.7657 4.26994V3.16406ZM15.8204 33.8906C14.4454 33.8906 13.2731 33.0088 12.8377 31.7812H18.8031C18.3677 33.0088 17.1954 33.8906 15.8204 33.8906ZM3.32797 29.6719C5.72992 26.4521 7.03133 22.5557 7.03133 18.4825V15.1172C7.03133 10.2709 10.9741 6.32812 15.8204 6.32812C20.6667 6.32812 24.6095 10.2709 24.6095 15.1172V18.4825C24.6095 22.5557 25.9109 26.4521 28.3129 29.6719H3.32797Z" fill="url(#paint0_linear_1_832)"/>
<path d="M29.5318 15.1167C29.5318 15.6992 30.004 16.1714 30.5865 16.1714C31.1689 16.1714 31.6412 15.6992 31.6412 15.1167C31.6412 10.8909 29.9956 6.91806 27.0075 3.92999C26.5957 3.51817 25.9278 3.51809 25.5159 3.92999C25.1041 4.34188 25.1041 5.00963 25.5159 5.42152C28.1056 8.0112 29.5318 11.4543 29.5318 15.1167Z" fill="url(#paint1_linear_1_832)"/>
<path d="M1.05469 16.1713C1.63716 16.1713 2.10938 15.6991 2.10938 15.1167C2.10938 11.4544 3.53559 8.01123 6.1252 5.42155C6.53709 5.00966 6.53709 4.3419 6.1252 3.93001C5.71338 3.51812 5.04555 3.51812 4.63366 3.93001C1.64559 6.91808 0 10.8909 0 15.1167C0 15.6991 0.472219 16.1713 1.05469 16.1713Z" fill="url(#paint2_linear_1_832)"/>
<defs>
<linearGradient id="paint0_linear_1_832" x1="-0.124081" y1="-4.13316e-07" x2="37.2167" y2="7.23952" gradientUnits="userSpaceOnUse">
<stop stop-color="#5163FF"/>
<stop offset="1" stop-color="#FE71B9"/>
</linearGradient>
<linearGradient id="paint1_linear_1_832" x1="25.1818" y1="3.62109" x2="32.961" y2="4.50083" gradientUnits="userSpaceOnUse">
<stop stop-color="#5163FF"/>
<stop offset="1" stop-color="#FE71B9"/>
</linearGradient>
<linearGradient id="paint2_linear_1_832" x1="-0.0252318" y1="3.62109" x2="7.75392" y2="4.50083" gradientUnits="userSpaceOnUse">
<stop stop-color="#5163FF"/>
<stop offset="1" stop-color="#FE71B9"/>
</linearGradient>
</defs>
</svg>
