<svg width="47" height="47" viewBox="0 0 47 47" fill="none" xmlns="http://www.w3.org/2000/svg">
<g opacity="0.8">
<mask id="path-1-inside-1_1_305" fill="white">
<path fill-rule="evenodd" clip-rule="evenodd" d="M26.1446 15.6L23.2553 0L20.3736 15.5587L12.6313 10.7169L18.2285 19.7526L0.155273 23.1L16.3059 26.0913L12.5859 32.0398L19.8044 27.5683L23.2553 46.2L26.704 27.5796L33.9088 32.0852L30.1968 26.0928L46.3553 23.1L28.3268 19.7609L33.9542 10.7623L26.1446 15.6Z"/>
</mask>
<path d="M23.2553 0L24.7302 -0.273175L21.7804 -0.273175L23.2553 0ZM26.1446 15.6L24.6697 15.8732L25.0693 18.0306L26.9345 16.8752L26.1446 15.6ZM20.3736 15.5587L19.5783 16.8304L21.4471 17.9991L21.8485 15.8318L20.3736 15.5587ZM12.6313 10.7169L13.4266 9.44511L11.3561 11.5068L12.6313 10.7169ZM18.2285 19.7526L18.5017 21.2275L20.6591 20.8279L19.5036 18.9627L18.2285 19.7526ZM0.155273 23.1L-0.117902 21.6251L-0.117902 24.5749L0.155273 23.1ZM16.3059 26.0913L17.5777 26.8866L18.7463 25.0178L16.579 24.6164L16.3059 26.0913ZM12.5859 32.0398L11.3141 31.2445L13.3758 33.315L12.5859 32.0398ZM19.8044 27.5683L21.2793 27.2951L20.8797 25.1377L19.0145 26.2931L19.8044 27.5683ZM23.2553 46.2L21.7804 46.4732H24.7302L23.2553 46.2ZM26.704 27.5796L27.4994 26.3078L25.6305 25.1391L25.2291 27.3064L26.704 27.5796ZM33.9088 32.0852L33.1135 33.357L35.184 31.2953L33.9088 32.0852ZM30.1968 26.0928L29.9236 24.6179L27.7662 25.0175L28.9216 26.8827L30.1968 26.0928ZM46.3553 23.1L46.6285 24.5749V21.6251L46.3553 23.1ZM28.3268 19.7609L27.055 18.9655L25.8863 20.8344L28.0537 21.2358L28.3268 19.7609ZM33.9542 10.7623L35.226 11.5576L33.1643 9.48712L33.9542 10.7623ZM21.7804 0.273175L24.6697 15.8732L27.6195 15.3268L24.7302 -0.273175L21.7804 0.273175ZM21.8485 15.8318L24.7302 0.273175L21.7804 -0.273175L18.8987 15.2855L21.8485 15.8318ZM11.8359 11.9887L19.5783 16.8304L21.1689 14.2869L13.4266 9.44511L11.8359 11.9887ZM19.5036 18.9627L13.9064 9.92699L11.3561 11.5068L16.9533 20.5425L19.5036 18.9627ZM0.428449 24.5749L18.5017 21.2275L17.9553 18.2777L-0.117902 21.6251L0.428449 24.5749ZM16.579 24.6164L0.428449 21.6251L-0.117902 24.5749L16.0327 27.5662L16.579 24.6164ZM13.8577 32.8352L17.5777 26.8866L15.0341 25.296L11.3141 31.2445L13.8577 32.8352ZM19.0145 26.2931L11.796 30.7647L13.3758 33.315L20.5943 28.8434L19.0145 26.2931ZM24.7302 45.9268L21.2793 27.2951L18.3295 27.8415L21.7804 46.4732L24.7302 45.9268ZM25.2291 27.3064L21.7804 45.9268L24.7302 46.4732L28.1789 27.8528L25.2291 27.3064ZM34.7042 30.8134L27.4994 26.3078L25.9087 28.8514L33.1135 33.357L34.7042 30.8134ZM28.9216 26.8827L32.6337 32.8751L35.184 31.2953L31.4719 25.3029L28.9216 26.8827ZM46.0821 21.6251L29.9236 24.6179L30.4699 27.5677L46.6285 24.5749L46.0821 21.6251ZM28.0537 21.2358L46.0821 24.5749L46.6285 21.6251L28.6 18.286L28.0537 21.2358ZM32.6824 9.96696L27.055 18.9655L29.5986 20.5562L35.226 11.5576L32.6824 9.96696ZM26.9345 16.8752L34.7441 12.0374L33.1643 9.48712L25.3547 14.3248L26.9345 16.8752Z" fill="white" mask="url(#path-1-inside-1_1_305)"/>
</g>
</svg>
