<svg width="20" height="21" viewBox="0 0 20 21" fill="none" xmlns="http://www.w3.org/2000/svg">
<path d="M15.8147 12.409C15.4047 11.982 14.9101 11.7537 14.3859 11.7537C13.866 11.7537 13.3672 11.9778 12.9402 12.4047L11.6044 13.7363C11.4945 13.6771 11.3846 13.6222 11.2789 13.5672C11.1267 13.4911 10.983 13.4193 10.8604 13.3432C9.6091 12.5485 8.47196 11.5128 7.38132 10.1727C6.85291 9.50481 6.49782 8.94258 6.23995 8.3719C6.58659 8.05485 6.90786 7.72512 7.22068 7.40808C7.33905 7.28971 7.45741 7.16712 7.57577 7.04876C8.4635 6.16103 8.4635 5.01121 7.57577 4.12348L6.42173 2.96943C6.29068 2.83839 6.15541 2.70311 6.02859 2.56784C5.77495 2.30575 5.50863 2.0352 5.23386 1.78157C4.82381 1.37575 4.33345 1.16016 3.81772 1.16016C3.30199 1.16016 2.80317 1.37575 2.38045 1.78157C2.37622 1.78579 2.37622 1.78579 2.37199 1.79002L0.934715 3.23998C0.393623 3.78107 0.0850312 4.44053 0.0173946 5.20566C-0.0840601 6.44003 0.279486 7.58985 0.558487 8.34231C1.24331 10.1896 2.26631 11.9017 3.79236 13.7363C5.64391 15.9472 7.87168 17.6931 10.4165 18.9232C11.3888 19.384 12.6866 19.9293 14.1365 20.0223C14.2253 20.0265 14.3183 20.0307 14.4028 20.0307C15.3793 20.0307 16.1994 19.6799 16.842 18.9824C16.8462 18.9739 16.8547 18.9697 16.8589 18.9612C17.0787 18.6949 17.3323 18.454 17.5987 18.1961C17.7804 18.0228 17.9664 17.841 18.1482 17.6508C18.5667 17.2154 18.7865 16.7081 18.7865 16.1881C18.7865 15.664 18.5625 15.1609 18.1355 14.7382L15.8147 12.409ZM17.3281 16.8603C17.3239 16.8603 17.3239 16.8645 17.3281 16.8603C17.1632 17.0378 16.9942 17.1985 16.8124 17.376C16.5376 17.6381 16.2586 17.9129 15.9965 18.2215C15.5696 18.678 15.0665 18.8936 14.4071 18.8936C14.3437 18.8936 14.276 18.8936 14.2126 18.8894C12.9571 18.8091 11.7904 18.3187 10.9153 17.9002C8.52269 16.7419 6.42173 15.0975 4.67586 13.0135C3.23436 11.276 2.27054 9.66967 1.63222 7.94494C1.23908 6.89235 1.09535 6.07226 1.15876 5.29866C1.20103 4.80407 1.39126 4.39403 1.74213 4.04316L3.18363 2.60166C3.39077 2.4072 3.61058 2.30152 3.82618 2.30152C4.09249 2.30152 4.30809 2.46216 4.44336 2.59743C4.44759 2.60166 4.45181 2.60589 4.45604 2.61011C4.7139 2.85107 4.95909 3.10048 5.21695 3.3668C5.348 3.50207 5.48327 3.63734 5.61854 3.77684L6.77259 4.93089C7.22068 5.37898 7.22068 5.79326 6.77259 6.24135C6.65 6.36394 6.53164 6.48653 6.40904 6.60489C6.05395 6.96844 5.71577 7.30662 5.348 7.63635C5.33954 7.64481 5.33109 7.64903 5.32686 7.65749C4.96331 8.02103 5.03095 8.37613 5.10704 8.61708C5.11127 8.62976 5.1155 8.64244 5.11972 8.65513C5.41986 9.38222 5.84259 10.067 6.48514 10.8829L6.48936 10.8871C7.65609 12.3244 8.88623 13.4446 10.2432 14.3028C10.4165 14.4127 10.5941 14.5015 10.7631 14.586C10.9153 14.6621 11.0591 14.734 11.1816 14.81C11.1986 14.8185 11.2155 14.8312 11.2324 14.8396C11.3761 14.9115 11.5114 14.9453 11.6509 14.9453C12.0017 14.9453 12.2216 14.7255 12.2934 14.6536L13.7392 13.2079C13.8829 13.0642 14.1112 12.8909 14.3775 12.8909C14.6396 12.8909 14.8552 13.0557 14.9862 13.1995C14.9904 13.2037 14.9904 13.2037 14.9947 13.2079L17.3239 15.5371C17.7593 15.9683 17.7593 16.4122 17.3281 16.8603Z" fill="#5163FF"/>
<path d="M10.8096 4.76491C11.9171 4.95091 12.9232 5.47509 13.7264 6.27828C14.5296 7.08146 15.0496 8.08755 15.2398 9.1951C15.2863 9.4741 15.5272 9.66856 15.802 9.66856C15.8358 9.66856 15.8654 9.66433 15.8992 9.6601C16.2121 9.60937 16.4192 9.31347 16.3685 9.00065C16.1402 7.6606 15.5061 6.43891 14.5381 5.47087C13.57 4.50282 12.3483 3.86873 11.0083 3.64045C10.6955 3.58973 10.4038 3.79686 10.3488 4.10545C10.2939 4.41405 10.4968 4.71418 10.8096 4.76491Z" fill="#5163FF"/>
<path d="M19.9914 8.83526C19.6152 6.62862 18.5752 4.62066 16.9773 3.02275C15.3794 1.42484 13.3715 0.384928 11.1648 0.00870037C10.8562 -0.0462543 10.5645 0.16511 10.5096 0.473701C10.4589 0.78652 10.666 1.0782 10.9788 1.13316C12.9487 1.46711 14.7453 2.40134 16.1741 3.82594C17.603 5.25476 18.533 7.05135 18.8669 9.02127C18.9134 9.30027 19.1544 9.49472 19.4292 9.49472C19.463 9.49472 19.4926 9.49049 19.5264 9.48627C19.835 9.43977 20.0463 9.14386 19.9914 8.83526Z" fill="#5163FF"/>
</svg>
