<svg width="215" height="215" viewBox="0 0 215 215" fill="none" xmlns="http://www.w3.org/2000/svg">
<path d="M62.5294 69.229C61.8529 70.0458 61.11 70.657 60.3007 71.0626C59.4908 71.4616 58.6853 71.6398 57.8843 71.5974C57.0827 71.5483 56.351 71.259 55.6892 70.7293L57.6644 68.3444C57.95 68.5563 58.2646 68.6663 58.6084 68.6744C58.9515 68.6757 59.2944 68.5847 59.637 68.4012C59.9795 68.2176 60.2943 67.9527 60.5812 67.6062C60.8802 67.2452 61.0806 66.8733 61.1825 66.4904C61.2844 66.1076 61.2872 65.7441 61.191 65.4001C61.0948 65.056 60.899 64.7617 60.6036 64.5171C60.3046 64.2694 59.9707 64.1343 59.6021 64.1118C59.2328 64.0826 58.8542 64.1687 58.4662 64.3699C58.0812 64.5675 57.7136 64.8778 57.3632 65.3008L56.498 66.3456L54.7585 64.905L55.6238 63.8602C55.9198 63.5028 56.119 63.1361 56.2215 62.7599C56.3271 62.3801 56.3339 62.023 56.2419 61.6886C56.1463 61.3512 55.9508 61.0602 55.6555 60.8156C55.3747 60.583 55.0726 60.4466 54.7494 60.4064C54.4255 60.3595 54.1038 60.4065 53.7841 60.5476C53.4674 60.6849 53.1777 60.9122 52.915 61.2295C52.6492 61.5504 52.4645 61.8923 52.3607 62.2551C52.2533 62.6149 52.2389 62.9627 52.3175 63.2983C52.3961 63.6339 52.5731 63.925 52.8485 64.1715L50.9685 66.4415C50.3321 65.896 49.9157 65.2407 49.7194 64.4756C49.5231 63.7105 49.537 62.9106 49.7612 62.0757C49.9848 61.2342 50.4137 60.4305 51.0479 59.6647C51.6881 58.8916 52.3888 58.3315 53.1497 57.9842C53.9107 57.6369 54.663 57.5007 55.4064 57.5754C56.1493 57.6435 56.8146 57.9239 57.4023 58.4168C58.0325 58.9327 58.3943 59.5611 58.4874 60.3023C58.5837 61.0398 58.4286 61.7689 58.0221 62.4898L58.1097 62.5623C58.898 61.8257 59.7037 61.4356 60.5268 61.3918C61.3493 61.3415 62.1073 61.6065 62.8008 62.187C63.442 62.7119 63.8565 63.3656 64.0444 64.1483C64.2353 64.9274 64.2042 65.7592 63.9511 66.6439C63.6979 67.5285 63.224 68.3902 62.5294 69.229Z" fill="url(#paint0_linear_1_602)"/>
<path d="M73.6584 58.7333C72.6669 59.4469 71.6396 59.821 70.5764 59.8554C69.5171 59.887 68.4635 59.584 67.4156 58.9462C66.3716 58.3056 65.3843 57.3402 64.4537 56.0498C63.5221 54.7661 62.9178 53.5343 62.6409 52.3547C62.3678 51.1722 62.4147 50.088 62.7815 49.1022C63.1495 48.1098 63.8259 47.2562 64.8107 46.5415C65.7956 45.8268 66.8149 45.4498 67.8686 45.4105C68.9263 45.3684 69.9748 45.6605 71.0143 46.2867C72.0511 46.9092 73.0334 47.8637 73.9611 49.1502C74.8983 50.4416 75.5077 51.6843 75.7891 52.8783C76.0744 54.0695 76.0378 55.1637 75.6792 56.161C75.3207 57.1584 74.6471 58.0158 73.6584 58.7333ZM72.1608 56.6697C72.8353 56.1802 73.1276 55.4504 73.0377 54.4801C72.9479 53.5098 72.4088 52.3478 71.4205 50.994C70.7725 50.1011 70.141 49.4244 69.526 48.9639C68.9149 48.5007 68.3341 48.2406 67.7838 48.1836C67.2373 48.1239 66.7399 48.2567 66.2916 48.5821C65.621 49.0687 65.3278 49.7934 65.4121 50.756C65.4964 51.7186 66.0219 52.87 66.9887 54.2102C67.645 55.1146 68.2829 55.8041 68.9024 56.2789C69.5229 56.7471 70.1098 57.0115 70.6628 57.0723C71.2132 57.1293 71.7125 56.9951 72.1608 56.6697Z" fill="url(#paint1_linear_1_602)"/>
<path d="M86.0488 49.4203L82.3517 40.0677L84.7163 39.133L88.4134 48.4856L86.0488 49.4203ZM81.1736 47.3075L80.2389 44.9429L89.5915 41.2458L90.5262 43.6104L81.1736 47.3075Z" fill="url(#paint2_linear_1_602)"/>
<path d="M109.568 35.0091L112.237 35.2332L114.943 41.2721L115.071 41.2828L118.746 35.7799L121.415 36.004L115.983 43.7841L115.574 48.6505L113.218 48.4526L113.626 43.5862L109.568 35.0091Z" fill="#838A95"/>
<path d="M124.831 50.4149L129.136 38.0522L137.177 40.8522L136.523 42.7296L130.722 40.7094L129.553 44.0657L134.938 45.9408L134.284 47.8182L128.9 45.9431L127.725 49.3175L133.574 51.3544L132.92 53.2318L124.831 50.4149Z" fill="#838A95"/>
<path d="M138.584 56.1976L136.475 54.7969L147.559 46.4436L149.997 48.0636L146.597 61.5213L144.488 60.1205L147.335 49.518L147.25 49.4614L138.584 56.1976ZM141.493 51.9684L147.243 55.7887L146.189 57.3752L140.439 53.555L141.493 51.9684Z" fill="#838A95"/>
<path d="M149.713 64.3121L159.442 55.5526L162.727 59.2007C163.4 59.9481 163.834 60.692 164.031 61.4325C164.23 62.1762 164.213 62.8889 163.978 63.5706C163.749 64.2526 163.324 64.873 162.703 65.4319C162.08 65.9936 161.418 66.3482 160.72 66.4957C160.027 66.6434 159.324 66.5734 158.612 66.2856C157.903 65.995 157.212 65.476 156.54 64.7287L154.2 62.1303L155.663 60.813L157.789 63.1738C158.182 63.6108 158.565 63.9145 158.936 64.0848C159.31 64.2523 159.675 64.297 160.029 64.219C160.389 64.1414 160.741 63.9471 161.087 63.6363C161.432 63.3255 161.665 62.9922 161.786 62.6365C161.911 62.2779 161.911 61.9023 161.786 61.5095C161.665 61.1139 161.407 60.6961 161.01 60.2559L159.556 58.6408L151.3 66.0744L149.713 64.3121ZM158.647 65.3687L156.407 71.7462L154.636 69.7796L156.915 63.4448L158.647 65.3687Z" fill="#838A95"/>
<path d="M171.098 77.8682C171.565 77.5567 171.833 77.1325 171.904 76.5957C171.976 76.0626 171.849 75.4845 171.524 74.8614C171.295 74.4233 171.032 74.0821 170.736 73.8377C170.44 73.5934 170.135 73.4474 169.822 73.3997C169.508 73.352 169.205 73.4022 168.912 73.5505C168.671 73.6768 168.49 73.8412 168.37 74.0435C168.251 74.2495 168.18 74.4815 168.156 74.7392C168.136 74.995 168.146 75.2617 168.185 75.5392C168.224 75.8168 168.278 76.0894 168.346 76.3569L168.642 77.5866C168.769 78.078 168.852 78.5712 168.889 79.066C168.929 79.5647 168.9 80.0437 168.804 80.5028C168.709 80.9658 168.524 81.3894 168.249 81.7737C167.974 82.158 167.585 82.4814 167.083 82.744C166.403 83.0994 165.714 83.2386 165.015 83.1616C164.319 83.0827 163.655 82.7907 163.02 82.2856C162.392 81.7823 161.835 81.0662 161.349 80.1372C160.877 79.2346 160.607 78.378 160.539 77.5672C160.473 76.7602 160.611 76.0296 160.951 75.3754C161.294 74.725 161.843 74.1833 162.597 73.7503L163.678 75.8179C163.29 76.0594 163.019 76.3597 162.866 76.7189C162.712 77.0781 162.661 77.4679 162.712 77.8882C162.766 78.3123 162.907 78.7433 163.136 79.1814C163.375 79.6384 163.652 80.0031 163.968 80.2757C164.289 80.5501 164.624 80.7213 164.972 80.7894C165.324 80.8554 165.667 80.8035 166.001 80.6335C166.301 80.4718 166.504 80.2528 166.61 79.9764C166.719 79.698 166.758 79.3676 166.726 78.985C166.7 78.6043 166.632 78.1786 166.52 77.7079L166.17 76.2103C165.916 75.1266 165.893 74.1768 166.101 73.3611C166.315 72.5471 166.838 71.923 167.669 71.4887C168.352 71.1313 169.047 71.0035 169.755 71.105C170.464 71.2104 171.128 71.5101 171.746 72.004C172.369 72.4959 172.893 73.1479 173.317 73.9598C173.747 74.7831 173.981 75.5794 174.018 76.3488C174.06 77.1199 173.921 77.8153 173.601 78.4348C173.284 79.0524 172.802 79.5376 172.155 79.8905L171.098 77.8682Z" fill="#838A95"/>
<path d="M175.036 115.882C173.626 115.852 172.424 115.563 171.429 115.013C170.439 114.468 169.687 113.737 169.174 112.818C168.66 111.904 168.415 110.873 168.439 109.727C168.463 108.581 168.751 107.56 169.303 106.664C169.858 105.772 170.642 105.072 171.655 104.565C172.671 104.062 173.882 103.825 175.288 103.855C176.698 103.884 177.899 104.171 178.889 104.716C179.883 105.266 180.637 105.998 181.151 106.912C181.664 107.831 181.909 108.863 181.885 110.009C181.861 111.155 181.573 112.174 181.022 113.066C180.47 113.962 179.686 114.662 178.67 115.165C177.658 115.672 176.446 115.911 175.036 115.882ZM175.086 113.498C176.079 113.519 176.919 113.381 177.607 113.084C178.3 112.792 178.826 112.377 179.187 111.839C179.552 111.301 179.742 110.676 179.757 109.964C179.772 109.253 179.608 108.621 179.266 108.068C178.928 107.515 178.419 107.076 177.74 106.751C177.065 106.43 176.231 106.259 175.238 106.238C174.246 106.217 173.403 106.353 172.711 106.646C172.022 106.942 171.496 107.36 171.131 107.898C170.77 108.436 170.582 109.06 170.567 109.772C170.552 110.483 170.714 111.115 171.052 111.668C171.394 112.221 171.903 112.658 172.578 112.979C173.257 113.304 174.093 113.477 175.086 113.498Z" fill="#838A95"/>
<path d="M167.343 121.274L179.952 124.794L177.696 132.872L175.782 132.337L177.399 126.544L173.976 125.588L172.513 130.827L170.599 130.293L172.061 125.053L166.705 123.558L167.343 121.274Z" fill="#838A95"/>
<path d="M154.004 147.899L163.357 157.059L157.4 163.142L155.98 161.751L160.278 157.362L157.738 154.875L153.749 158.949L152.329 157.558L156.318 153.485L153.765 150.985L149.431 155.41L148.011 154.019L154.004 147.899Z" fill="#838A95"/>
<path d="M148.191 169.988L143.242 167.381L143.155 167.434L143.161 173.035L140.848 174.435L140.908 166.747L134.012 163.271L136.363 161.847L141.323 164.411L141.411 164.358L141.437 158.774L143.777 157.357L143.631 165.098L150.515 168.581L148.191 169.988Z" fill="#838A95"/>
<path d="M130.776 164.514L134.56 177.046L129.861 178.465C128.898 178.756 128.036 178.82 127.275 178.658C126.51 178.498 125.865 178.154 125.341 177.626C124.814 177.105 124.43 176.446 124.19 175.65C123.947 174.847 123.901 174.082 124.051 173.355C124.201 172.629 124.553 171.986 125.105 171.428C125.659 170.873 126.419 170.45 127.386 170.158L130.501 169.218L131.064 171.084L128.255 171.932C127.692 172.102 127.261 172.339 126.961 172.644C126.661 172.948 126.477 173.297 126.409 173.692C126.337 174.087 126.369 174.507 126.503 174.952C126.637 175.397 126.843 175.762 127.121 176.047C127.394 176.334 127.741 176.517 128.161 176.595C128.578 176.678 129.07 176.634 129.637 176.463L131.717 175.835L128.506 165.2L130.776 164.514Z" fill="#838A95"/>
<path d="M114.638 168.357L115.186 181.436L106.679 181.792L106.596 179.806L112.734 179.549L112.585 175.998L106.888 176.237L106.805 174.251L112.501 174.012L112.352 170.442L106.163 170.701L106.08 168.715L114.638 168.357Z" fill="#838A95"/>
<path d="M101.053 168.325L98.3313 181.13L93.5295 180.109C92.5458 179.9 91.7568 179.554 91.1625 179.07C90.5641 178.586 90.1596 177.999 89.9489 177.309C89.7332 176.623 89.7121 175.871 89.8858 175.054C90.0603 174.233 90.3869 173.558 90.8655 173.028C91.339 172.501 91.9484 172.145 92.6937 171.959C93.438 171.777 94.3021 171.791 95.2858 172L98.7058 172.727L98.2965 174.653L95.1891 173.992C94.6139 173.87 94.126 173.849 93.7255 173.93C93.3242 174.014 93.0032 174.192 92.7626 174.463C92.5169 174.738 92.3457 175.102 92.2492 175.557C92.1526 176.011 92.1598 176.418 92.2708 176.777C92.381 177.14 92.6017 177.444 92.9331 177.689C93.2636 177.938 93.7185 178.124 94.2979 178.247L96.4237 178.699L98.7334 167.832L101.053 168.325ZM93.2048 172.721L91.2681 166.245L93.8566 166.795L95.737 173.259L93.2048 172.721Z" fill="#838A95"/>
<path d="M74.0919 173.106L79.9126 161.38L82.0367 162.434L76.216 174.16L74.0919 173.106Z" fill="#838A95"/>
<path d="M71.9378 156.321L63.384 166.231L56.9388 160.668L58.2377 159.163L62.8877 163.177L65.21 160.486L60.8938 156.761L62.1928 155.256L66.5089 158.981L68.8437 156.277L64.155 152.229L65.4539 150.725L71.9378 156.321Z" fill="#838A95"/>
<path d="M45.4405 146.03L56.1901 138.559L57.3939 140.291L53.5922 150.445L53.6542 150.535L60.9763 145.446L62.3297 147.393L51.5801 154.864L50.369 153.121L54.1796 142.969L54.114 142.874L46.7866 147.967L45.4405 146.03Z" fill="#838A95"/>
<path d="M42.056 127.229L42.8893 129.47C42.5456 129.67 42.2639 129.909 42.0442 130.186C41.8205 130.465 41.6563 130.769 41.5517 131.099C41.4471 131.429 41.4057 131.776 41.4277 132.141C41.4441 132.503 41.5222 132.872 41.6618 133.247C41.9099 133.914 42.2975 134.443 42.8246 134.834C43.3477 135.226 43.985 135.448 44.7365 135.5C45.484 135.554 46.319 135.41 47.2417 135.066C48.1803 134.717 48.9169 134.277 49.4515 133.747C49.9807 133.214 50.3139 132.63 50.4513 131.997C50.5832 131.362 50.5259 130.712 50.2793 130.049C50.1427 129.682 49.967 129.356 49.7523 129.072C49.5321 128.786 49.2786 128.551 48.9919 128.366C48.7036 128.178 48.387 128.048 48.042 127.976C47.6956 127.901 47.33 127.896 46.9453 127.961L46.124 125.716C46.7383 125.583 47.3531 125.561 47.9683 125.651C48.5821 125.736 49.1678 125.93 49.7256 126.232C50.2794 126.535 50.7775 126.945 51.22 127.463C51.6585 127.982 52.0137 128.607 52.2855 129.337C52.6866 130.416 52.7949 131.471 52.6105 132.504C52.4262 133.536 51.9533 134.471 51.1919 135.309C50.4305 136.147 49.3908 136.811 48.0728 137.301C46.7507 137.793 45.529 137.967 44.4077 137.825C43.2824 137.685 42.3127 137.284 41.4985 136.623C40.6843 135.962 40.0782 135.096 39.6801 134.025C39.4261 133.342 39.2858 132.672 39.2592 132.013C39.2325 131.355 39.3195 130.727 39.5202 130.129C39.7168 129.533 40.0278 128.988 40.453 128.494C40.8729 127.996 41.4072 127.575 42.056 127.229Z" fill="#838A95"/>
<path d="M49.0482 118.317L36.029 119.685L35.1391 111.218L37.1161 111.01L37.7582 117.119L41.2927 116.748L40.6967 111.077L42.6737 110.869L43.2697 116.54L46.8233 116.166L46.1759 110.006L48.1529 109.799L49.0482 118.317Z" fill="#838A95"/>
<path d="M42.9862 84.8834L44.8384 85.3281L43.4625 91.0587L41.6103 90.614L42.9862 84.8834Z" fill="#838A95"/>
<path fill-rule="evenodd" clip-rule="evenodd" d="M107.5 118.284L98.1101 123.126H85L90.4379 114.145H124.552L130 123.126H116.89L107.5 118.284Z" fill="#5163FF"/>
<path fill-rule="evenodd" clip-rule="evenodd" d="M122.401 110.592L107.499 118.282L92.5977 110.592L107.499 86L122.401 110.592ZM112.02 107.672L107.499 100.213L102.978 107.672L107.499 110.004L112.02 107.672Z" fill="#5163FF"/>
<circle opacity="0.1" cx="107" cy="108" r="89" stroke="url(#paint3_linear_1_602)" stroke-width="2" stroke-dasharray="3 3"/>
<circle opacity="0.1" cx="107" cy="108" r="42" stroke="url(#paint4_linear_1_602)" stroke-width="2" stroke-dasharray="3 3"/>
<defs>
<linearGradient id="paint0_linear_1_602" x1="43.3014" y1="62.3462" x2="55.6772" y2="50.814" gradientUnits="userSpaceOnUse">
<stop stop-color="#5163FF"/>
<stop offset="0.5" stop-color="#C872F2"/>
<stop offset="1" stop-color="#FE72BA"/>
</linearGradient>
<linearGradient id="paint1_linear_1_602" x1="56.6479" y1="47.207" x2="71.5028" y2="39.1149" gradientUnits="userSpaceOnUse">
<stop stop-color="#5163FF"/>
<stop offset="0.5" stop-color="#C872F2"/>
<stop offset="1" stop-color="#FE72BA"/>
</linearGradient>
<linearGradient id="paint2_linear_1_602" x1="74.0263" y1="34.5898" x2="90.427" y2="30.4462" gradientUnits="userSpaceOnUse">
<stop stop-color="#5163FF"/>
<stop offset="0.5" stop-color="#C872F2"/>
<stop offset="1" stop-color="#FE72BA"/>
</linearGradient>
<linearGradient id="paint3_linear_1_602" x1="107" y1="19" x2="107" y2="197" gradientUnits="userSpaceOnUse">
<stop stop-color="#5163FF"/>
<stop offset="1" stop-color="#FE71B9"/>
</linearGradient>
<linearGradient id="paint4_linear_1_602" x1="107" y1="66" x2="107" y2="150" gradientUnits="userSpaceOnUse">
<stop stop-color="#5163FF"/>
<stop offset="1" stop-color="#FE71B9"/>
</linearGradient>
</defs>
</svg>
