<svg width="24" height="18" viewBox="0 0 24 18" fill="none" xmlns="http://www.w3.org/2000/svg">
<path d="M5.85827 17.5748C4.85039 17.5748 3.9685 17.3858 3.2126 17.0079C2.45669 16.5879 1.84777 16.042 1.38583 15.3701C0.965879 14.6982 0.629921 13.9003 0.377953 12.9764C0.125984 12.0525 0 11.0866 0 10.0787C0 8.021 0.524934 6.08924 1.5748 4.28347C2.66667 2.47769 4.34646 1.04987 6.61417 0L7.1811 1.13386C6.00525 1.67979 4.95538 2.47769 4.0315 3.52756C3.14961 4.53544 2.62467 5.6063 2.45669 6.74016C2.20472 7.62205 2.18373 8.48294 2.3937 9.32283C3.31758 8.31496 4.55643 7.81102 6.11024 7.81102C7.53806 7.81102 8.71391 8.25197 9.6378 9.13386C10.5617 9.97375 11.0236 11.1496 11.0236 12.6614C11.0236 14.1312 10.5407 15.3281 9.5748 16.252C8.60892 17.1339 7.37008 17.5748 5.85827 17.5748ZM18.8346 17.5748C17.8268 17.5748 16.9449 17.3858 16.189 17.0079C15.4331 16.5879 14.8241 16.042 14.3622 15.3701C13.9423 14.6982 13.6063 13.9003 13.3543 12.9764C13.1024 12.0525 12.9764 11.0866 12.9764 10.0787C12.9764 8.021 13.5013 6.08924 14.5512 4.28347C15.643 2.47769 17.3228 1.04987 19.5906 0L20.1575 1.13386C18.9816 1.67979 17.9318 2.47769 17.0079 3.52756C16.126 4.53544 15.601 5.6063 15.4331 6.74016C15.1811 7.62205 15.1601 8.48294 15.3701 9.32283C16.294 8.31496 17.5328 7.81102 19.0866 7.81102C20.5144 7.81102 21.6903 8.25197 22.6142 9.13386C23.5381 9.97375 24 11.1496 24 12.6614C24 14.1312 23.5171 15.3281 22.5512 16.252C21.5853 17.1339 20.3465 17.5748 18.8346 17.5748Z" fill="white"/>
</svg>
