<svg width="19" height="19" viewBox="0 0 19 19" fill="none" xmlns="http://www.w3.org/2000/svg">
<path d="M8.63527 1.24871C8.93463 0.327397 10.238 0.327395 10.5374 1.24871L12.0754 5.98212C12.2092 6.39414 12.5932 6.67311 13.0264 6.67311H18.0034C18.9722 6.67311 19.3749 7.91272 18.5912 8.48212L14.5647 11.4075C14.2142 11.6622 14.0676 12.1135 14.2015 12.5256L15.7394 17.259C16.0388 18.1803 14.9843 18.9464 14.2006 18.377L10.1741 15.4516C9.82363 15.197 9.34903 15.197 8.99855 15.4516L4.97206 18.377C4.18835 18.9464 3.13387 18.1803 3.43322 17.259L4.9712 12.5256C5.10507 12.1135 4.95842 11.6622 4.60793 11.4075L0.581447 8.48212C-0.202267 7.91272 0.200507 6.67311 1.16923 6.67311H6.14624C6.57946 6.67311 6.96342 6.39415 7.09729 5.98212L8.63527 1.24871Z" fill="#FFA722"/>
</svg>
